<svg width="841" height="130" viewBox="0 0 841 130" fill="none" xmlns="http://www.w3.org/2000/svg">
<path fill-rule="evenodd" clip-rule="evenodd" d="M675.196 58L678.942 67.3209L652.5 108L650 112L644.407 120.644L627.925 129H545.529L535.239 117.704L569.498 64.2452L581.802 58H675.196ZM590 108H601.733L620.5 79H608.785L590 108Z" fill="white"/>
<path d="M374 0L340 53V0H329V71H389.5L435.5 0H374Z" fill="white"/>
<rect width="89" height="3" transform="matrix(1 0 0 -1 164 42)" fill="white"/>
<rect width="68" height="9" transform="matrix(1 0 0 -1 741 67)" fill="white"/>
<rect width="119" height="3" transform="matrix(1 0 0 -1 220 3)" fill="white"/>
<rect width="72" height="3" transform="matrix(1 0 0 -1 399 3)" fill="white"/>
<path d="M769.552 58L723 129H736.448L783 58H769.552Z" fill="white"/>
<path fill-rule="evenodd" clip-rule="evenodd" d="M718 58H755L709 129H656L702 58H711.854L702 73H708.155L718 58Z" fill="white"/>
<path fill-rule="evenodd" clip-rule="evenodd" d="M174.317 0L183.568 23.1583L121.587 119.284L101.006 129.5H0L76.5 20H55L78 0H174.317ZM110 20H131.5L76.5 99.5L53 101.5L110 20Z" fill="white"/>
<path fill-rule="evenodd" clip-rule="evenodd" d="M567.317 0L576.568 23.1583L514.587 119.284L494.006 129.5H393L466 20H448L460 0H567.317ZM503 20H524.5L469.5 99.5L446 101.5L503 20Z" fill="white"/>
<path fill-rule="evenodd" clip-rule="evenodd" d="M205.965 5.5154L169.395 62.5813L177.063 71H264.925L279.919 63.3983L286 54H223.719L226.328 50H288.5L321 0H216.832L205.965 5.5154ZM243.733 41H232L250.785 12H262.5L243.733 41Z" fill="white"/>
<path fill-rule="evenodd" clip-rule="evenodd" d="M834.607 58L840.117 71.7108L803 129H750L796 58H834.607Z" fill="white"/>
<rect width="144" height="3" transform="matrix(1 0 0 -1 513 67)" fill="white"/>
<rect width="93" height="3" transform="matrix(1 0 0 -1 614 61)" fill="white"/>
</svg>
